<svg xmlns="http://www.w3.org/2000/svg" width="371.792" height="64" viewBox="0 0 371.792 64" role="img" aria-labelledby="title"><title id="title">enough tools ink</title><rect x="0" y="0" width="64" height="64" fill="#12151c"/><g fill="#ffffff"><path d="M24.345000000000002 44.121Q20.349000000000004 44.121 17.298000000000002 42.42Q14.247000000000002 40.719 12.573000000000002 37.614000000000004Q10.899000000000003 34.509 10.899000000000003 30.297000000000004V29.649Q10.899000000000003 25.491000000000003 12.573000000000002 22.386000000000003Q14.247000000000002 19.281000000000002 17.244 17.580000000000002Q20.241 15.879000000000001 24.237000000000002 15.879000000000001Q28.179000000000002 15.879000000000001 31.068 17.607Q33.957 19.335 35.577 22.413000000000004Q37.197 25.491000000000003 37.197 29.595000000000002V31.863H17.487000000000002Q17.595000000000002 34.833 19.620000000000005 36.641999999999996Q21.645000000000003 38.451 24.561000000000003 38.451Q27.477 38.451 28.908 37.155Q30.339000000000002 35.859 31.041 34.293000000000006L36.387 37.047000000000004Q35.631 38.505 34.2 40.152Q32.769000000000005 41.799 30.393000000000004 42.96Q28.017000000000003 44.121 24.345000000000002 44.121ZM17.541000000000004 27.003000000000004H30.609Q30.393 24.519000000000002 28.665 23.034000000000002Q26.937 21.549000000000003 24.183 21.549000000000003Q21.321 21.549000000000003 19.620000000000005 23.034000000000002Q17.919000000000004 24.519000000000002 17.541000000000004 27.003000000000004Z"/><path d="M43.187 44.121Q41.080999999999996 44.121 39.64999999999999 42.717Q38.218999999999994 41.313 38.218999999999994 39.153000000000006Q38.218999999999994 36.993 39.64999999999999 35.616Q41.080999999999996 34.239000000000004 43.187 34.239000000000004Q45.29299999999999 34.239000000000004 46.696999999999996 35.616Q48.101 36.993 48.101 39.207Q48.101 41.367000000000004 46.696999999999996 42.744Q45.29299999999999 44.121 43.187 44.121Z"/></g><g fill="#12151c"><path d="M102.256 44.672Q98.70400000000001 44.672 95.992 43.16Q93.28 41.648 91.792 38.888000000000005Q90.304 36.128 90.304 32.384V31.808Q90.304 28.112000000000002 91.792 25.352Q93.28 22.592 95.944 21.08Q98.608 19.567999999999998 102.16 19.567999999999998Q105.664 19.567999999999998 108.232 21.104Q110.8 22.64 112.24000000000001 25.376Q113.68 28.112000000000002 113.68 31.759999999999998V33.775999999999996H96.16Q96.256 36.416 98.056 38.024Q99.856 39.632 102.44800000000001 39.632Q105.03999999999999 39.632 106.312 38.480000000000004Q107.584 37.328 108.208 35.936L112.96000000000001 38.384Q112.288 39.68 111.01599999999999 41.144Q109.744 42.608 107.632 43.64Q105.52 44.672 102.256 44.672ZM96.208 29.456H107.824Q107.632 27.248 106.096 25.928Q104.56 24.608 102.112 24.608Q99.568 24.608 98.056 25.928Q96.544 27.248 96.208 29.456Z"/><path d="M117.248 44.0V20.24H122.912V23.456H123.72800000000001Q124.352 22.16 125.96000000000001 21.008Q127.568 19.855999999999998 130.832 19.855999999999998Q133.616 19.855999999999998 135.704 21.104Q137.792 22.352 138.94400000000002 24.584Q140.096 26.816 140.096 29.792V44.0H134.336V30.224Q134.336 27.44 132.96800000000002 26.072000000000003Q131.6 24.704 129.056 24.704Q126.224 24.704 124.61600000000001 26.6Q123.00800000000001 28.496000000000002 123.00800000000001 31.951999999999998V44.0Z"/><path d="M156.048 44.672Q152.496 44.672 149.68800000000002 43.232Q146.88000000000002 41.792 145.27200000000002 39.056Q143.66400000000002 36.32 143.66400000000002 32.480000000000004V31.759999999999998Q143.66400000000002 27.919999999999998 145.27200000000002 25.183999999999997Q146.88000000000002 22.448 149.68800000000002 21.008Q152.496 19.567999999999998 156.048 19.567999999999998Q159.60000000000002 19.567999999999998 162.43200000000002 21.008Q165.264 22.448 166.872 25.183999999999997Q168.48000000000002 27.919999999999998 168.48000000000002 31.759999999999998V32.480000000000004Q168.48000000000002 36.32 166.872 39.056Q165.264 41.792 162.43200000000002 43.232Q159.60000000000002 44.672 156.048 44.672ZM156.048 39.536Q158.976 39.536 160.848 37.664Q162.72000000000003 35.792 162.72000000000003 32.336V31.904Q162.72000000000003 28.448 160.872 26.576Q159.024 24.704 156.048 24.704Q153.168 24.704 151.296 26.576Q149.424 28.448 149.424 31.904V32.336Q149.424 35.792 151.296 37.664Q153.168 39.536 156.048 39.536Z"/><path d="M181.26399999999998 44.384Q178.528 44.384 176.44 43.135999999999996Q174.352 41.888 173.176 39.632Q172.0 37.376 172.0 34.448V20.24H177.808V33.968Q177.808 36.752 179.176 38.144000000000005Q180.54399999999998 39.536 183.04 39.536Q185.92 39.536 187.528 37.64Q189.136 35.744 189.136 32.288V20.24H194.896V44.0H189.232V40.784H188.368Q187.792 42.032 186.16 43.208Q184.528 44.384 181.26399999999998 44.384Z"/><path d="M198.65599999999998 32.192V31.472Q198.65599999999998 27.727999999999998 200.14399999999998 25.064Q201.63199999999998 22.4 204.10399999999998 20.983999999999998Q206.57599999999996 19.567999999999998 209.50399999999996 19.567999999999998Q212.81599999999997 19.567999999999998 214.54399999999998 20.744Q216.272 21.919999999999998 217.03999999999996 23.216H217.90399999999997V20.24H223.56799999999998V48.368Q223.56799999999998 50.768 222.176 52.184Q220.784 53.6 218.432 53.6H202.49599999999998V48.56H216.46399999999997Q217.80799999999996 48.56 217.80799999999996 47.12V40.592H216.94399999999996Q216.46399999999997 41.408 215.57599999999996 42.224000000000004Q214.688 43.04 213.224 43.568Q211.75999999999996 44.096 209.50399999999996 44.096Q206.57599999999996 44.096 204.10399999999998 42.68Q201.63199999999998 41.264 200.14399999999998 38.6Q198.65599999999998 35.936 198.65599999999998 32.192ZM211.13599999999997 39.056Q214.06399999999996 39.056 215.98399999999998 37.232Q217.90399999999997 35.408 217.90399999999997 32.096000000000004V31.616Q217.90399999999997 28.256 215.98399999999998 26.432000000000002Q214.06399999999996 24.608 211.13599999999997 24.608Q208.25599999999997 24.608 206.33599999999996 26.432000000000002Q204.41599999999997 28.256 204.41599999999997 31.616V32.096000000000004Q204.41599999999997 35.408 206.33599999999996 37.232Q208.25599999999997 39.056 211.13599999999997 39.056Z"/><path d="M228.48 44.0V10.399999999999999H234.24V23.264H235.056Q235.488 22.448 236.304 21.656Q237.12 20.864 238.512 20.36Q239.904 19.855999999999998 242.064 19.855999999999998Q244.848 19.855999999999998 246.936 21.104Q249.024 22.352 250.176 24.584Q251.328 26.816 251.328 29.792V44.0H245.568V30.224Q245.568 27.44 244.2 26.072000000000003Q242.832 24.704 240.288 24.704Q237.456 24.704 235.848 26.6Q234.24 28.496000000000002 234.24 31.951999999999998V44.0Z"/></g><g fill="#12151c"><path d="M276.216 44.0Q274.2 44.0 273.12 42.896Q272.03999999999996 41.792 272.03999999999996 39.872V23.84H264.984V20.528H272.03999999999996V12.175999999999998H275.832V20.528H283.512V23.84H275.832V39.296Q275.832 40.736 277.224 40.736H282.45599999999996V44.0Z"/><path d="M297.64 44.672Q294.08799999999997 44.672 291.376 43.184Q288.664 41.696 287.152 38.983999999999995Q285.64 36.272 285.64 32.576V31.951999999999998Q285.64 28.304000000000002 287.152 25.568Q288.664 22.832 291.376 21.344Q294.08799999999997 19.855999999999998 297.64 19.855999999999998Q301.192 19.855999999999998 303.904 21.344Q306.616 22.832 308.128 25.568Q309.64 28.304000000000002 309.64 31.951999999999998V32.576Q309.64 36.272 308.128 38.983999999999995Q306.616 41.696 303.904 43.184Q301.192 44.672 297.64 44.672ZM297.64 41.264Q301.384 41.264 303.616 38.888000000000005Q305.848 36.512 305.848 32.480000000000004V32.048Q305.848 28.016 303.616 25.64Q301.384 23.264 297.64 23.264Q293.944 23.264 291.688 25.64Q289.432 28.016 289.432 32.048V32.480000000000004Q289.432 36.512 291.688 38.888000000000005Q293.944 41.264 297.64 41.264Z"/><path d="M325.304 44.672Q321.75199999999995 44.672 319.03999999999996 43.184Q316.328 41.696 314.816 38.983999999999995Q313.304 36.272 313.304 32.576V31.951999999999998Q313.304 28.304000000000002 314.816 25.568Q316.328 22.832 319.03999999999996 21.344Q321.75199999999995 19.855999999999998 325.304 19.855999999999998Q328.856 19.855999999999998 331.568 21.344Q334.28 22.832 335.792 25.568Q337.304 28.304000000000002 337.304 31.951999999999998V32.576Q337.304 36.272 335.792 38.983999999999995Q334.28 41.696 331.568 43.184Q328.856 44.672 325.304 44.672ZM325.304 41.264Q329.048 41.264 331.28 38.888000000000005Q333.512 36.512 333.512 32.480000000000004V32.048Q333.512 28.016 331.28 25.64Q329.048 23.264 325.304 23.264Q321.608 23.264 319.352 25.64Q317.096 28.016 317.096 32.048V32.480000000000004Q317.096 36.512 319.352 38.888000000000005Q321.608 41.264 325.304 41.264Z"/><path d="M342.11999999999995 44.0V10.399999999999999H345.912V44.0Z"/><path d="M361.336 44.672Q356.968 44.672 353.968 42.656Q350.968 40.64 350.344 36.272L353.944 35.456Q354.32800000000003 37.76 355.384 39.08Q356.44 40.4 358.0 40.952Q359.56 41.504 361.336 41.504Q363.976 41.504 365.512 40.44799999999999Q367.048 39.391999999999996 367.048 37.616Q367.048 35.792 365.584 35.048Q364.12 34.304 361.576 33.824L359.608 33.488Q357.35200000000003 33.104 355.48 32.288Q353.608 31.472 352.504 30.08Q351.40000000000003 28.688 351.40000000000003 26.576Q351.40000000000003 23.408 353.848 21.631999999999998Q356.296 19.855999999999998 360.32800000000003 19.855999999999998Q364.312 19.855999999999998 366.784 21.656Q369.25600000000003 23.456 369.976 26.72L366.42400000000004 27.631999999999998Q365.992 25.088 364.36 24.056Q362.728 23.024 360.32800000000003 23.024Q357.928 23.024 356.536 23.912Q355.144 24.8 355.144 26.528Q355.144 28.208 356.464 29.0Q357.784 29.792 359.992 30.176000000000002L361.96000000000004 30.512Q364.456 30.944 366.448 31.688000000000002Q368.44 32.432 369.616 33.824Q370.79200000000003 35.216 370.79200000000003 37.472Q370.79200000000003 40.928 368.22400000000005 42.8Q365.656 44.672 361.336 44.672Z"/></g></svg>
